<svg xmlns="http://www.w3.org/2000/svg" xmlns:xlink="http://www.w3.org/1999/xlink" width="300" zoomAndPan="magnify" viewBox="0 0 224.87999 74.999997" height="100" preserveAspectRatio="xMidYMid meet" version="1.0"><defs><g/><clipPath id="4d8d03d6e6"><path d="M 80.28125 6.125 L 123.226562 6.125 L 123.226562 49.066406 L 80.28125 49.066406 Z M 80.28125 6.125 " clip-rule="nonzero"/></clipPath><clipPath id="fbafacfcfa"><path d="M 101.753906 6.125 C 89.894531 6.125 80.28125 15.738281 80.28125 27.59375 C 80.28125 39.453125 89.894531 49.066406 101.753906 49.066406 C 113.613281 49.066406 123.226562 39.453125 123.226562 27.59375 C 123.226562 15.738281 113.613281 6.125 101.753906 6.125 Z M 101.753906 6.125 " clip-rule="nonzero"/></clipPath><clipPath id="030df18d02"><path d="M 80.28125 6.125 L 123.007812 6.125 L 123.007812 48.851562 L 80.28125 48.851562 Z M 80.28125 6.125 " clip-rule="nonzero"/></clipPath><clipPath id="bf7ccdfcd0"><path d="M 101.75 6.125 C 89.894531 6.125 80.28125 15.734375 80.28125 27.59375 C 80.28125 39.449219 89.894531 49.0625 101.75 49.0625 C 113.609375 49.0625 123.21875 39.449219 123.21875 27.59375 C 123.21875 15.734375 113.609375 6.125 101.75 6.125 Z M 101.75 6.125 " clip-rule="nonzero"/></clipPath><clipPath id="355db42e3a"><path d="M 87 10 L 113 10 L 113 45 L 87 45 Z M 87 10 " clip-rule="nonzero"/></clipPath><clipPath id="235ce64149"><path d="M 83.472656 -6.867188 L 136.503906 9.402344 L 120.234375 62.433594 L 67.203125 46.164062 Z M 83.472656 -6.867188 " clip-rule="nonzero"/></clipPath><clipPath id="026c8500b9"><path d="M 67.203125 46.164062 L 81.359375 0.0195312 L 105.917969 0.0195312 L 136.503906 9.402344 L 136.503906 62.433594 L 67.203125 62.433594 Z M 67.203125 46.164062 " clip-rule="evenodd"/></clipPath><clipPath id="384f9502f1"><path d="M 67.203125 46.164062 L 81.359375 0.0195312 L 105.917969 0.0195312 L 136.503906 9.402344 L 136.503906 62.433594 L 67.203125 62.433594 Z M 67.203125 46.164062 " clip-rule="evenodd"/></clipPath><clipPath id="69ca706ba6"><path d="M 83.472656 -6.867188 L 136.503906 9.402344 L 120.234375 62.433594 L 67.203125 46.164062 Z M 83.472656 -6.867188 " clip-rule="nonzero"/></clipPath></defs><g clip-path="url(#4d8d03d6e6)"><g clip-path="url(#fbafacfcfa)"><path fill="#ff0000" d="M 80.28125 6.125 L 123.226562 6.125 L 123.226562 49.066406 L 80.28125 49.066406 Z M 80.28125 6.125 " fill-opacity="1" fill-rule="nonzero"/></g></g><g clip-path="url(#030df18d02)"><g clip-path="url(#bf7ccdfcd0)"><path stroke-linecap="butt" transform="matrix(0.7496, 0, 0, 0.7496, 80.282196, 6.123774)" fill="none" stroke-linejoin="miter" d="M 28.639015 0.00163538 C 12.823287 0.00163538 -0.00126236 12.820973 -0.00126236 28.641913 C -0.00126236 44.457641 12.823287 57.28219 28.639015 57.28219 C 44.459954 57.28219 57.279292 44.457641 57.279292 28.641913 C 57.279292 12.820973 44.459954 0.00163538 28.639015 0.00163538 Z M 28.639015 0.00163538 " stroke="#ffffff" stroke-width="2" stroke-opacity="1" stroke-miterlimit="4"/></g></g><g clip-path="url(#355db42e3a)"><g clip-path="url(#235ce64149)"><g clip-path="url(#026c8500b9)"><g clip-path="url(#384f9502f1)"><g clip-path="url(#69ca706ba6)"><path fill="#ffffff" d="M 94.914062 44.605469 C 95.59375 44.8125 96.304688 44.734375 96.835938 44.464844 C 98.046875 43.664062 98.015625 42.105469 98.5 40.871094 C 98.550781 40.578125 98.652344 40.28125 98.699219 39.996094 C 98.996094 38.871094 99.257812 37.769531 99.527344 36.660156 C 99.652344 36.449219 99.796875 36.175781 100.019531 36.175781 C 100.589844 36.351562 101 36.902344 101.46875 37.109375 C 101.859375 37.484375 102.414062 37.578125 102.789062 37.902344 C 103.609375 38.28125 104.410156 38.546875 105.265625 38.839844 C 105.996094 38.945312 106.585938 39.097656 107.3125 39.15625 C 108.839844 39.117188 110.359375 39.164062 111.546875 38.195312 C 111.910156 37.738281 112.34375 37.398438 112.582031 36.816406 C 113.128906 36.152344 113 35.21875 112.921875 34.449219 C 112.441406 32.222656 110.578125 30.746094 108.488281 29.660156 C 108.476562 29.636719 108.472656 29.609375 108.472656 29.558594 C 109.300781 29.148438 110.019531 28.449219 110.15625 27.371094 C 110.183594 25.539062 108.898438 24.445312 107.5625 23.410156 C 106.289062 22.527344 104.925781 21.917969 103.75 20.992188 L 105.265625 20.078125 C 107.328125 18.742188 108.773438 16.066406 108.839844 13.476562 C 108.757812 12.445312 108.804688 11.371094 108.167969 10.625 C 107.917969 10.324219 107.441406 10.179688 107.082031 10.25 C 106.542969 10.378906 106.242188 10.871094 105.894531 11.277344 C 105.015625 13.035156 104.480469 14.867188 104.003906 16.714844 C 103.550781 18 103.269531 19.300781 102.824219 20.558594 C 102.78125 20.609375 102.742188 20.636719 102.636719 20.632812 C 101.5 21.152344 99.824219 20.929688 98.433594 21.011719 C 97.71875 21.015625 97.019531 21.101562 96.371094 21.195312 C 95.246094 21.3125 94.234375 21.792969 93.273438 22.222656 C 92.054688 22.949219 90.8125 23.695312 89.914062 24.773438 C 89.332031 25.28125 88.742188 25.976562 88.371094 26.742188 C 87.988281 27.515625 87.804688 28.265625 87.511719 29.066406 C 87.257812 30.472656 87.414062 31.757812 88.234375 32.824219 C 88.542969 33.128906 88.851562 33.386719 89.28125 33.578125 C 89.660156 33.808594 90.105469 33.847656 90.507812 33.941406 C 90.570312 33.929688 90.617188 33.929688 90.644531 33.9375 C 90.714844 33.957031 90.800781 33.90625 90.855469 33.824219 C 90.03125 32.601562 89.84375 30.6875 90.464844 29.082031 C 90.84375 27.902344 91.621094 26.785156 92.707031 26.4375 C 93.992188 26.023438 95.519531 26.136719 96.96875 26.230469 C 97.855469 26.335938 98.679688 26.542969 99.457031 26.929688 C 99.914062 27.085938 100.390625 27.292969 100.773438 27.527344 C 100.65625 28.117188 100.242188 29.464844 100.089844 30.007812 C 99.199219 33.097656 98.332031 36.175781 97.449219 39.242188 C 97.277344 39.800781 97.113281 40.339844 96.894531 40.851562 C 96.871094 40.9375 96.769531 40.976562 96.675781 40.980469 C 96.011719 40.582031 95.171875 40.554688 94.527344 40.964844 C 93.847656 41.375 93.621094 42.273438 93.5625 43.089844 C 93.699219 43.617188 94.019531 44.121094 94.515625 44.390625 C 94.667969 44.464844 94.804688 44.523438 94.914062 44.605469 Z M 104 37.589844 C 104.539062 37.722656 105.035156 37.890625 105.632812 37.953125 C 106.484375 37.917969 107.152344 37.691406 107.910156 37.359375 C 108.671875 36.898438 109.429688 36.128906 109.566406 35.058594 C 109.539062 33.640625 108.597656 32.542969 107.660156 31.722656 C 106.992188 31.132812 106.324219 30.597656 105.535156 30.152344 C 104.390625 29.351562 103.097656 28.71875 101.824219 28.207031 L 101.628906 28.789062 C 101.230469 30.433594 100.664062 31.984375 100.4375 33.699219 C 100.289062 34.472656 100.386719 35.167969 100.878906 35.734375 C 101.472656 36.320312 102.210938 36.742188 102.898438 37.117188 C 103.289062 37.292969 103.664062 37.378906 104 37.589844 Z M 103.316406 27.996094 C 104.234375 28.351562 105.433594 28.558594 106.296875 28.109375 C 106.4375 28.035156 106.519531 28.023438 106.589844 27.976562 C 107.132812 27.621094 107.605469 26.996094 107.660156 26.25 C 107.550781 24.941406 106.714844 24.074219 105.832031 23.234375 C 105.164062 22.796875 104.53125 22.375 103.871094 21.921875 C 103.738281 21.808594 103.609375 21.707031 103.476562 21.683594 L 102.085938 27.453125 C 102.316406 27.613281 102.882812 27.804688 103.316406 27.996094 Z M 93.667969 24.960938 L 95.046875 25.160156 C 96.597656 25.207031 98.113281 25.742188 99.550781 26.289062 C 100 26.457031 100.507812 26.75 100.933594 26.910156 C 101.515625 25.359375 101.871094 23.566406 102.425781 21.957031 L 102.515625 21.65625 C 102.488281 21.464844 102.195312 21.628906 102.066406 21.617188 C 101.667969 21.707031 101.328125 21.84375 100.898438 21.886719 C 99.871094 22.035156 98.875 22.191406 97.859375 22.394531 C 96.765625 22.703125 95.761719 23.078125 94.875 23.773438 C 94.339844 24.023438 93.976562 24.433594 93.59375 24.800781 C 93.570312 24.84375 93.582031 24.894531 93.609375 24.941406 Z M 103.964844 19.988281 C 104.148438 19.941406 104.257812 19.738281 104.449219 19.644531 C 104.589844 19.484375 104.71875 19.398438 104.863281 19.269531 C 105.578125 18.523438 106.085938 17.5 106.503906 16.578125 C 106.800781 15.578125 107.035156 14.414062 106.890625 13.429688 L 106.699219 13.136719 C 106.523438 13.082031 106.363281 13.226562 106.238281 13.320312 C 105.367188 14.355469 105.003906 15.625 104.671875 16.828125 C 104.429688 17.902344 104.09375 18.945312 103.921875 19.992188 Z M 103.964844 19.988281 " fill-opacity="1" fill-rule="evenodd"/></g></g></g></g></g><g fill="#ffffff" fill-opacity="1"><g transform="translate(11.56954, 37.295725)"><g><path d="M 17.90625 0 L 14.03125 0 L 12.625 -4.296875 L 5.46875 -4.296875 L 4.078125 0 L 0.28125 0 L 6.734375 -18.65625 L 11.46875 -18.65625 Z M 8.875 -14.765625 L 6.46875 -7.40625 L 11.609375 -7.40625 L 9.1875 -14.765625 Z M 8.875 -14.765625 "/></g></g></g><g fill="#ffffff" fill-opacity="1"><g transform="translate(30.01761, 37.295725)"><g><path d="M 4.09375 0 L 0.3125 0 L 5.84375 -9.59375 L 0.59375 -18.65625 L 4.5 -18.65625 L 8.375 -11.96875 L 8.6875 -11.96875 L 12.625 -18.65625 L 16.34375 -18.65625 L 11.09375 -9.59375 L 16.625 0 L 12.71875 0 L 8.5625 -7.203125 L 8.25 -7.203125 Z M 4.09375 0 "/></g></g></g><g fill="#ffffff" fill-opacity="1"><g transform="translate(47.21495, 37.295725)"><g><path d="M 6.109375 -8.1875 L 6.109375 -3.09375 L 15.015625 -3.09375 L 15.015625 0 L 2.421875 0 L 2.421875 -18.65625 L 14.8125 -18.65625 L 14.8125 -15.578125 L 6.109375 -15.578125 L 6.109375 -11.203125 L 13.71875 -11.203125 L 13.71875 -8.1875 Z M 6.109375 -8.1875 "/></g></g></g><g fill="#ffffff" fill-opacity="1"><g transform="translate(63.518911, 37.295725)"><g><path d="M 6.109375 -18.65625 L 6.109375 -3.09375 L 14.5 -3.09375 L 14.5 0 L 2.421875 0 L 2.421875 -18.65625 Z M 6.109375 -18.65625 "/></g></g></g><g fill="#ffffff" fill-opacity="1"><g transform="translate(78.545071, 69.751529)"><g><path d="M 3.140625 -5.5 L 3.140625 -1.140625 L 9.078125 -1.140625 L 9.078125 0 L 1.765625 0 L 1.765625 -11.671875 L 8.953125 -11.671875 L 8.953125 -10.53125 L 3.140625 -10.53125 L 3.140625 -6.625 L 8.265625 -6.625 L 8.265625 -5.5 Z M 3.140625 -5.5 "/></g></g></g><g fill="#ffffff" fill-opacity="1"><g transform="translate(88.558119, 69.751529)"><g><path d="M 5.53125 -11.671875 C 6.71875 -11.671875 7.734375 -11.457031 8.578125 -11.03125 C 9.429688 -10.601562 10.085938 -9.957031 10.546875 -9.09375 C 11.003906 -8.226562 11.234375 -7.140625 11.234375 -5.828125 C 11.234375 -4.523438 11.003906 -3.4375 10.546875 -2.5625 C 10.085938 -1.695312 9.429688 -1.050781 8.578125 -0.625 C 7.734375 -0.207031 6.71875 0 5.53125 0 L 1.765625 0 L 1.765625 -11.671875 Z M 5.40625 -1.171875 C 6.375 -1.171875 7.175781 -1.320312 7.8125 -1.625 C 8.457031 -1.925781 8.941406 -2.421875 9.265625 -3.109375 C 9.597656 -3.796875 9.765625 -4.703125 9.765625 -5.828125 C 9.765625 -6.972656 9.597656 -7.882812 9.265625 -8.5625 C 8.941406 -9.25 8.457031 -9.742188 7.8125 -10.046875 C 7.175781 -10.347656 6.375 -10.5 5.40625 -10.5 L 3.140625 -10.5 L 3.140625 -1.171875 Z M 5.40625 -1.171875 "/></g></g></g><g fill="#ffffff" fill-opacity="1"><g transform="translate(101.115328, 69.751529)"><g><path d="M 3.140625 0 L 1.765625 0 L 1.765625 -11.671875 L 3.140625 -11.671875 Z M 3.140625 0 "/></g></g></g><g fill="#ffffff" fill-opacity="1"><g transform="translate(106.183612, 69.751529)"><g><path d="M 9.109375 -11.671875 L 9.109375 -10.5 L 5.453125 -10.5 L 5.453125 0 L 4.09375 0 L 4.09375 -10.5 L 0.4375 -10.5 L 0.4375 -11.671875 Z M 9.109375 -11.671875 "/></g></g></g><g fill="#ffffff" fill-opacity="1"><g transform="translate(115.869668, 69.751529)"><g><path d="M 3.140625 0 L 1.765625 0 L 1.765625 -11.671875 L 3.140625 -11.671875 Z M 3.140625 0 "/></g></g></g><g fill="#ffffff" fill-opacity="1"><g transform="translate(120.937953, 69.751529)"><g><path d="M 6.40625 0.171875 C 5.394531 0.171875 4.492188 -0.046875 3.703125 -0.484375 C 2.910156 -0.921875 2.289062 -1.585938 1.84375 -2.484375 C 1.394531 -3.378906 1.171875 -4.492188 1.171875 -5.828125 C 1.171875 -7.171875 1.394531 -8.289062 1.84375 -9.1875 C 2.289062 -10.082031 2.910156 -10.742188 3.703125 -11.171875 C 4.492188 -11.609375 5.394531 -11.828125 6.40625 -11.828125 C 7.414062 -11.828125 8.3125 -11.609375 9.09375 -11.171875 C 9.882812 -10.742188 10.503906 -10.082031 10.953125 -9.1875 C 11.410156 -8.289062 11.640625 -7.171875 11.640625 -5.828125 C 11.640625 -4.492188 11.410156 -3.378906 10.953125 -2.484375 C 10.503906 -1.585938 9.882812 -0.921875 9.09375 -0.484375 C 8.3125 -0.046875 7.414062 0.171875 6.40625 0.171875 Z M 6.40625 -1.09375 C 7.613281 -1.09375 8.539062 -1.472656 9.1875 -2.234375 C 9.84375 -2.992188 10.171875 -4.191406 10.171875 -5.828125 C 10.171875 -7.472656 9.84375 -8.671875 9.1875 -9.421875 C 8.539062 -10.179688 7.613281 -10.5625 6.40625 -10.5625 C 3.894531 -10.5625 2.640625 -8.984375 2.640625 -5.828125 C 2.640625 -2.671875 3.894531 -1.09375 6.40625 -1.09375 Z M 6.40625 -1.09375 "/></g></g></g><g fill="#ffffff" fill-opacity="1"><g transform="translate(133.893933, 69.751529)"><g><path d="M 3.109375 0 L 1.765625 0 L 1.765625 -11.671875 L 3.453125 -11.671875 L 9.140625 -2.75 L 9.34375 -2.78125 L 9.34375 -11.671875 L 10.671875 -11.671875 L 10.671875 0 L 9.234375 0 L 3.296875 -9.53125 L 3.109375 -9.5 Z M 3.109375 0 "/></g></g></g><g fill="#ffffff" fill-opacity="1"><g transform="translate(122.142574, 37.295725)"><g><path d="M 17.90625 0 L 14.03125 0 L 12.625 -4.296875 L 5.46875 -4.296875 L 4.078125 0 L 0.28125 0 L 6.734375 -18.65625 L 11.46875 -18.65625 Z M 8.875 -14.765625 L 6.46875 -7.40625 L 11.609375 -7.40625 L 9.1875 -14.765625 Z M 8.875 -14.765625 "/></g></g></g><g fill="#ffffff" fill-opacity="1"><g transform="translate(140.590645, 37.295725)"><g><path d="M 6 0 L 2.421875 0 L 2.421875 -18.65625 L 6.65625 -18.65625 L 14.140625 -6.640625 L 14.46875 -6.6875 L 14.46875 -18.65625 L 18.015625 -18.65625 L 18.015625 0 L 14.25 0 L 6.3125 -12.84375 L 6 -12.796875 Z M 6 0 "/></g></g></g><g fill="#ffffff" fill-opacity="1"><g transform="translate(161.310449, 37.295725)"><g><path d="M 9.140625 -18.65625 C 12.171875 -18.65625 14.484375 -17.875 16.078125 -16.3125 C 17.671875 -14.75 18.46875 -12.421875 18.46875 -9.328125 C 18.46875 -6.242188 17.671875 -3.914062 16.078125 -2.34375 C 14.484375 -0.78125 12.171875 0 9.140625 0 L 2.421875 0 L 2.421875 -18.65625 Z M 8.921875 -3.109375 C 10.847656 -3.109375 12.285156 -3.597656 13.234375 -4.578125 C 14.191406 -5.554688 14.671875 -7.140625 14.671875 -9.328125 C 14.671875 -11.515625 14.191406 -13.097656 13.234375 -14.078125 C 12.285156 -15.066406 10.847656 -15.5625 8.921875 -15.5625 L 6.109375 -15.5625 L 6.109375 -3.109375 Z M 8.921875 -3.109375 "/></g></g></g><g fill="#ffffff" fill-opacity="1"><g transform="translate(181.519751, 37.295725)"><g><path d="M 6.109375 -8.1875 L 6.109375 -3.09375 L 15.015625 -3.09375 L 15.015625 0 L 2.421875 0 L 2.421875 -18.65625 L 14.8125 -18.65625 L 14.8125 -15.578125 L 6.109375 -15.578125 L 6.109375 -11.203125 L 13.71875 -11.203125 L 13.71875 -8.1875 Z M 6.109375 -8.1875 "/></g></g></g><g fill="#ffffff" fill-opacity="1"><g transform="translate(197.823713, 37.295725)"><g><path d="M 14.953125 -18.65625 L 14.953125 -15.5625 L 9.578125 -15.5625 L 9.578125 0 L 5.890625 0 L 5.890625 -15.5625 L 0.515625 -15.5625 L 0.515625 -18.65625 Z M 14.953125 -18.65625 "/></g></g></g></svg>